<?xml version="1.0" encoding="utf-8"?>
<!-- Generator: Adobe Illustrator 16.0.4, SVG Export Plug-In . SVG Version: 6.00 Build 0)  -->
<!DOCTYPE svg PUBLIC "-//W3C//DTD SVG 1.1//EN" "http://www.w3.org/Graphics/SVG/1.1/DTD/svg11.dtd">
<svg version="1.1" id="Layer_1" xmlns="http://www.w3.org/2000/svg" xmlns:xlink="http://www.w3.org/1999/xlink" x="0px" y="0px"
	 width="20px" height="20px" viewBox="0 0 20 20" enable-background="new 0 0 20 20" xml:space="preserve">
<polygon fill="#C7B299" points="19.453,20 0.351,20 0.351,0.291 16.055,0.291 19.453,6.355 "/>
<rect x="0" y="0.801" fill="#958573" width="3.979" height="18.396"/>
<polyline fill="#192B37" points="16.254,0.041 16.254,5.953 19.453,5.953 "/>
<g>
	<polygon fill="#30F421" points="6.159,4.685 6.134,4.078 8.993,4.053 9.018,4.685 	"/>
	<path d="M8.993,4.078V4.66H6.159V4.078H8.993 M9.043,4.028h-0.05H6.159h-0.05v0.05V4.66v0.05h0.05h2.834h0.05V4.66V4.078V4.028
		L9.043,4.028z"/>
</g>
<path d="M16.392,0H0v20h5.303v-0.911h-4.72V0.91h15.365V6.83h3.47v12.259H5.303V20H20V6.005L16.392,0z M16.53,1.565l2.619,4.354
	H16.53V1.565z"/>
<g>
	<polygon fill="#30F421" points="8.994,4.685 8.969,4.078 11.828,4.052 11.854,4.685 	"/>
	<path d="M11.828,4.078V4.66H8.994V4.078H11.828 M11.877,4.028h-0.049H8.994h-0.05v0.05V4.66v0.05h0.05h2.834h0.049V4.66V4.078
		V4.028L11.877,4.028z"/>
</g>
<g>
	<polygon fill="#222DF2" points="11.791,4.685 11.766,4.078 14.08,4.053 14.105,4.685 	"/>
	<path d="M14.08,4.078V4.66h-2.289V4.078H14.08 M14.131,4.028H14.08h-2.289H11.74v0.05V4.66v0.05h0.051h2.289h0.051V4.66V4.078
		V4.028L14.131,4.028z"/>
</g>
<g>
	<polygon points="14.08,4.685 14.055,4.078 15.497,4.052 15.521,4.685 	"/>
	<path d="M15.497,4.078V4.66H14.08V4.078H15.497 M15.547,4.028h-0.05H14.08h-0.051v0.05V4.66v0.05h0.051h1.417h0.05V4.66V4.078
		V4.028L15.547,4.028z"/>
</g>
<g>
	<polygon points="15.012,5.52 14.987,4.078 15.594,4.053 15.618,5.52 	"/>
	<path d="M15.594,4.078v1.417h-0.582V4.078H15.594 M15.644,4.028h-0.05h-0.582h-0.05v0.05v1.417v0.05h0.05h0.582h0.05v-0.05V4.078
		V4.028L15.644,4.028z"/>
</g>
<g>
	<polygon points="4.701,4.685 4.676,4.078 6.118,4.053 6.143,4.685 	"/>
	<path d="M6.118,4.078V4.66H4.701V4.078H6.118 M6.168,4.028h-0.05H4.701h-0.05v0.05V4.66v0.05h0.05h1.417h0.05V4.66V4.078V4.028
		L6.168,4.028z"/>
</g>
<g>
	<polygon points="4.701,5.52 4.676,4.078 5.283,4.053 5.308,5.52 	"/>
	<path d="M5.283,4.078v1.417H4.701V4.078H5.283 M5.333,4.028h-0.05H4.701h-0.05v0.05v1.417v0.05h0.05h0.582h0.05v-0.05V4.078V4.028
		L5.333,4.028z"/>
</g>
<g>
	<polygon fill="#020202" points="15.012,10.262 14.986,8.33 15.594,8.305 15.619,10.262 	"/>
	<path d="M15.594,8.33v1.907h-0.582V8.33H15.594 M15.644,8.28h-0.05h-0.582h-0.05v0.05v1.907v0.05h0.05h0.582h0.05v-0.05V8.33V8.28
		L15.644,8.28z"/>
</g>
<g>
	<polygon fill="#F2A222" points="15.012,8.355 14.986,5.495 15.594,5.47 15.619,8.355 	"/>
	<path d="M15.594,5.495V8.33h-0.582V5.495H15.594 M15.644,5.445h-0.05h-0.582h-0.05v0.05V8.33v0.05h0.05h0.582h0.05V8.33V5.495
		V5.445L15.644,5.445z"/>
</g>
<g>
	<polygon fill="#F2A222" points="4.701,8.355 4.676,5.495 5.283,5.47 5.308,8.355 	"/>
	<path d="M5.283,5.495V8.33H4.701V5.495H5.283 M5.333,5.445h-0.05H4.701h-0.05v0.05V8.33v0.05h0.05h0.582h0.05V8.33V5.495V5.445
		L5.333,5.445z"/>
</g>
<g>
	<polygon fill="#020202" points="14.08,9.599 14.055,8.992 15.033,8.967 15.059,9.599 	"/>
	<path d="M15.033,8.992v0.582H14.08V8.992H15.033 M15.083,8.942h-0.05H14.08h-0.05v0.05v0.582v0.05h0.05h0.953h0.05v-0.05V8.992
		V8.942L15.083,8.942z"/>
</g>
<g>
	<polygon fill="#020202" points="4.701,10.261 4.676,8.33 5.283,8.305 5.308,10.261 	"/>
	<path d="M5.283,8.33v1.907H4.701V8.33H5.283 M5.333,8.28h-0.05H4.701h-0.05v0.05v1.907v0.05h0.05h0.582h0.05v-0.05V8.33V8.28
		L5.333,8.28z"/>
</g>
<g>
	<polygon fill="#020202" points="5.165,9.599 5.14,8.992 6.118,8.967 6.143,9.599 	"/>
	<path d="M6.118,8.992v0.582H5.165V8.992H6.118 M6.168,8.942h-0.05H5.165h-0.05v0.05v0.582v0.05h0.05h0.953h0.05v-0.05V8.992V8.942
		L6.168,8.942z"/>
</g>
<g>
	<polygon fill="#222DF2" points="11.791,9.599 11.766,8.992 14.08,8.967 14.105,9.599 	"/>
	<path d="M14.08,8.992v0.582h-2.289V8.992H14.08 M14.13,8.942h-0.05h-2.289h-0.05v0.05v0.582v0.05h0.05h2.289h0.05v-0.05V8.992
		V8.942L14.13,8.942z"/>
</g>
<g>
	<polygon fill="#222DF2" points="6.118,9.599 6.093,8.992 8.407,8.967 8.433,9.599 	"/>
	<path d="M8.407,8.992v0.582H6.118V8.992H8.407 M8.457,8.942h-0.05H6.118h-0.05v0.05v0.582v0.05h0.05h2.289h0.05v-0.05V8.992V8.942
		L8.457,8.942z"/>
</g>
<g>
	<polygon fill="#30F421" points="4.701,13.096 4.676,10.236 5.283,10.211 5.308,13.096 	"/>
	<path d="M5.283,10.236v2.834H4.701v-2.834H5.283 M5.333,10.187h-0.05H4.701h-0.05v0.05v2.834v0.051h0.05h0.582h0.05V13.07v-2.834
		V10.187L5.333,10.187z"/>
</g>
<g>
	<polygon fill="#30F421" points="15.012,13.096 14.986,10.236 15.594,10.211 15.619,13.096 	"/>
	<path d="M15.594,10.236v2.834h-0.582v-2.834H15.594 M15.644,10.187h-0.05h-0.582h-0.05v0.05v2.834v0.05h0.05h0.582h0.05v-0.05
		v-2.834V10.187L15.644,10.187z"/>
</g>
<g>
	<polygon fill="#F22222" points="15.012,14.432 14.986,13.07 15.594,13.045 15.619,14.432 	"/>
	<path d="M15.594,13.07v1.336h-0.582V13.07H15.594 M15.644,13.021h-0.05h-0.582h-0.05v0.05v1.336v0.05h0.05h0.582h0.05v-0.05V13.07
		V13.021L15.644,13.021z"/>
</g>
<g>
	<polygon fill="#F22222" points="4.701,14.432 4.676,13.07 5.283,13.045 5.309,14.432 	"/>
	<path d="M5.283,13.07v1.336H4.701V13.07H5.283 M5.333,13.021h-0.05H4.701h-0.05v0.05v1.336v0.05h0.05h0.582h0.05v-0.05V13.07
		V13.021L5.333,13.021z"/>
</g>
<g>
	<polygon points="4.701,15.849 4.676,15.241 6.118,15.216 6.144,15.849 	"/>
	<path d="M6.118,15.241v0.582H4.701v-0.582H6.118 M6.168,15.191h-0.05H4.701h-0.05v0.05v0.582v0.05h0.05h1.417h0.05v-0.05v-0.582
		V15.191L6.168,15.191z"/>
</g>
<g>
	<polygon points="4.701,15.849 4.676,14.406 5.283,14.381 5.309,15.849 	"/>
	<path d="M5.283,14.406v1.417H4.701v-1.417H5.283 M5.333,14.356h-0.05H4.701h-0.05v0.05v1.417v0.05h0.05h0.582h0.05v-0.05v-1.417
		V14.356L5.333,14.356z"/>
</g>
<g>
	<polygon points="15.012,15.849 14.986,14.406 15.594,14.381 15.619,15.849 	"/>
	<path d="M15.594,14.406v1.417h-0.582v-1.417H15.594 M15.644,14.356h-0.05h-0.582h-0.05v0.05v1.417v0.05h0.05h0.582h0.05v-0.05
		v-1.417V14.356L15.644,14.356z"/>
</g>
<g>
	<polygon points="14.08,15.849 14.055,15.241 15.497,15.216 15.522,15.849 	"/>
	<path d="M15.497,15.241v0.582H14.08v-0.582H15.497 M15.547,15.191h-0.05H14.08h-0.05v0.05v0.582v0.05h0.05h1.417h0.05v-0.05v-0.582
		V15.191L15.547,15.191z"/>
</g>
<g>
	<polygon fill="#222DF2" points="6.159,15.849 6.134,15.241 8.448,15.216 8.474,15.849 	"/>
	<path d="M8.448,15.241v0.582H6.159v-0.582H8.448 M8.498,15.191h-0.05H6.159h-0.05v0.05v0.582v0.05h0.05h2.289h0.05v-0.05v-0.582
		V15.191L8.498,15.191z"/>
</g>
<g>
	<polygon fill="#222DF2" points="11.791,15.849 11.766,15.241 14.08,15.216 14.105,15.849 	"/>
	<path d="M14.08,15.241v0.582h-2.289v-0.582H14.08 M14.13,15.191h-0.05h-2.289h-0.05v0.05v0.582v0.05h0.05h2.289h0.05v-0.05v-0.582
		V15.191L14.13,15.191z"/>
</g>
<rect x="0.854" y="4.66" fill="#999999" width="2.792" height="0.34"/>
<rect x="0.854" y="7.99" fill="#999999" width="2.792" height="0.34"/>
<rect x="0.854" y="6.344" fill="#999999" width="2.792" height="0.34"/>
<rect x="0.854" y="9.342" fill="#999999" width="0.465" height="0.465"/>
<rect x="3.181" y="9.342" fill="#999999" width="0.465" height="0.465"/>
<rect x="2.018" y="9.342" fill="#999999" width="0.465" height="0.465"/>
<rect x="16.75" y="6.83" fill="#958573" width="2.668" height="0.592"/>
</svg>
