<?xml version="1.0" encoding="utf-8"?>
<!-- Generator: Adobe Illustrator 16.0.4, SVG Export Plug-In . SVG Version: 6.00 Build 0)  -->
<!DOCTYPE svg PUBLIC "-//W3C//DTD SVG 1.1//EN" "http://www.w3.org/Graphics/SVG/1.1/DTD/svg11.dtd">
<svg version="1.1" id="Layer_1" xmlns="http://www.w3.org/2000/svg" xmlns:xlink="http://www.w3.org/1999/xlink" x="0px" y="0px"
	 width="20px" height="15.935px" viewBox="0 2.031 20 15.935" enable-background="new 0 2.031 20 15.935" xml:space="preserve">
<g>
	<path fill="#E2E5E7" d="M20,15.305c0,0.277-0.227,0.505-0.506,0.505H0.505C0.226,15.81,0,15.584,0,15.305V2.537
		c0-0.279,0.226-0.505,0.505-0.505h18.989C19.773,2.031,20,2.258,20,2.537V15.305L20,15.305z"/>
	<path fill="#D1D5D5" d="M12.27,15.81H10H7.731c0,0-0.092,1.519-0.275,1.838H10h2.544C12.359,17.326,12.27,15.81,12.27,15.81z"/>
	<path fill="#C6CBCB" d="M12.969,17.773c-0.275-0.032-0.425-0.126-0.425-0.126H10H7.456c0,0-0.149,0.094-0.425,0.126
		c-0.276,0.035-0.459,0.06-0.459,0.193H10h3.428C13.428,17.831,13.244,17.809,12.969,17.773z"/>
	<path fill="#232323" d="M19.494,2.031H0.505C0.226,2.031,0,2.258,0,2.537v11.466h20V2.537C20,2.258,19.773,2.031,19.494,2.031z
		 M19.172,13.285H9.135H0.828V2.75h14.75h3.595L19.172,13.285L19.172,13.285z"/>
	<polygon fill="#898D90" points="0.828,2.75 0.828,13.285 9.135,13.285 19.172,13.285 19.172,2.75 15.577,2.75 	"/>
	<path fill="#C6CBCB" d="M12.27,15.81H10H7.731c0,0-0.014,0.228-0.041,0.521h4.619C12.282,16.035,12.27,15.81,12.27,15.81z"/>
	<circle fill="#232323" cx="10.002" cy="14.949" r="0.329"/>
	<g>
		<rect x="0.831" y="2.758" fill="#D0D1D3" width="18.344" height="0.516"/>
		<circle fill="#FF3B30" cx="1.203" cy="3.016" r="0.187"/>
		<circle fill="#4CD964" cx="2.61" cy="3.016" r="0.187"/>
		<circle fill="#FFCC00" cx="1.875" cy="3.016" r="0.187"/>
	</g>
</g>
</svg>
