<?xml version="1.0" encoding="utf-8"?>
<!-- Generator: Adobe Illustrator 16.0.4, SVG Export Plug-In . SVG Version: 6.00 Build 0)  -->
<!DOCTYPE svg PUBLIC "-//W3C//DTD SVG 1.1//EN" "http://www.w3.org/Graphics/SVG/1.1/DTD/svg11.dtd">
<svg version="1.1" id="Capa_1" xmlns="http://www.w3.org/2000/svg" xmlns:xlink="http://www.w3.org/1999/xlink" x="0px" y="0px"
	 width="20px" height="20px" viewBox="0 0 20 20" enable-background="new 0 0 20 20" xml:space="preserve">
<g>
	<path d="M19.666,10.666H0.333c-0.158,0-0.293,0.111-0.326,0.264c-0.033,0.154,0.046,0.311,0.189,0.375l19.333,8.666
		C19.574,19.99,19.62,20,19.666,20c0.064,0,0.127-0.018,0.182-0.053C19.943,19.885,20,19.779,20,19.666V11
		C20,10.815,19.851,10.666,19.666,10.666z M19.334,19.152L1.892,11.334h17.442V19.152z"/>
	<path d="M19.848,0.053c-0.095-0.062-0.214-0.07-0.317-0.024L0.197,8.696C0.054,8.76-0.025,8.916,0.007,9.07
		C0.04,9.223,0.176,9.333,0.333,9.333h19.333C19.851,9.333,20,9.185,20,9V0.333C20,0.22,19.943,0.115,19.848,0.053z"/>
</g>
</svg>
