<?xml version="1.0" encoding="utf-8"?>
<!-- Generator: Adobe Illustrator 16.0.4, SVG Export Plug-In . SVG Version: 6.00 Build 0)  -->
<!DOCTYPE svg PUBLIC "-//W3C//DTD SVG 1.1//EN" "http://www.w3.org/Graphics/SVG/1.1/DTD/svg11.dtd">
<svg version="1.1" id="Capa_1" xmlns="http://www.w3.org/2000/svg" xmlns:xlink="http://www.w3.org/1999/xlink" x="0px" y="0px"
	 width="20px" height="20px" viewBox="0 0 20 20" enable-background="new 0 0 20 20" xml:space="preserve">
<g>
	<path d="M9.069,0.008C8.916-0.026,8.76,0.054,8.695,0.197L0.029,19.529c-0.046,0.104-0.037,0.224,0.024,0.318
		C0.115,19.942,0.22,20,0.333,20H9c0.184,0,0.333-0.149,0.333-0.334V0.333C9.333,0.176,9.224,0.041,9.069,0.008z M8.667,19.334
		H0.848L8.667,1.892V19.334z"/>
	<path d="M19.971,19.53L11.305,0.197c-0.064-0.144-0.221-0.223-0.375-0.189c-0.153,0.033-0.264,0.168-0.264,0.326v19.333
		C10.666,19.852,10.816,20,11,20h8.666c0.113,0,0.219-0.057,0.279-0.152C20.008,19.753,20.018,19.633,19.971,19.53z"/>
</g>
</svg>
