<?xml version="1.0" encoding="utf-8"?>
<!-- Generator: Adobe Illustrator 16.0.4, SVG Export Plug-In . SVG Version: 6.00 Build 0)  -->
<!DOCTYPE svg PUBLIC "-//W3C//DTD SVG 1.1//EN" "http://www.w3.org/Graphics/SVG/1.1/DTD/svg11.dtd">
<svg version="1.1" id="Layer_1" xmlns="http://www.w3.org/2000/svg" xmlns:xlink="http://www.w3.org/1999/xlink" x="0px" y="0px"
	 width="50px" height="50px" viewBox="0 0 50 50" enable-background="new 0 0 50 50" xml:space="preserve">
<g>
	<g>
		<path d="M11.095,23.423H4.614c-1.761,0-3.19-1.435-3.19-3.189V4.614c0-1.761,1.434-3.19,3.19-3.19H11.2
			c0.396,0,0.712-0.317,0.712-0.711C11.912,0.316,11.596,0,11.2,0H4.614C2.067,0,0,2.073,0,4.614v15.62
			c0,2.546,2.073,4.614,4.614,4.614h6.481c0.396,0,0.712-0.317,0.712-0.712C11.807,23.741,11.485,23.423,11.095,23.423z"/>
		<path d="M22.822,11.923l-4.524-4.525c-0.28-0.279-0.728-0.279-1.006,0c-0.279,0.28-0.279,0.729,0,1.007l3.311,3.312H6.159
			c-0.396,0-0.712,0.316-0.712,0.712s0.316,0.712,0.712,0.712h14.443l-3.311,3.312c-0.279,0.28-0.279,0.729,0,1.007
			c0.137,0.137,0.321,0.212,0.5,0.212s0.364-0.069,0.501-0.212l4.526-4.523C23.102,12.65,23.102,12.197,22.822,11.923z"/>
	</g>
</g>
</svg>
