<?xml version="1.0" encoding="utf-8"?>
<!-- Generator: Adobe Illustrator 16.0.4, SVG Export Plug-In . SVG Version: 6.00 Build 0)  -->
<!DOCTYPE svg PUBLIC "-//W3C//DTD SVG 1.1//EN" "http://www.w3.org/Graphics/SVG/1.1/DTD/svg11.dtd">
<svg version="1.1" id="Layer_1" xmlns="http://www.w3.org/2000/svg" xmlns:xlink="http://www.w3.org/1999/xlink" x="0px" y="0px"
	 width="53px" height="53px" viewBox="0 0 53 53" enable-background="new 0 0 53 53" xml:space="preserve">
<g transform="translate(0 1)">
	<g>
		<path fill="#D4D6D7" d="M48.139,22.326c-0.158,4.969-0.816,10.818-3.629,15.549c4.796-1.648,6.562-6.182,6.562-9.944
			C51.072,25.271,49.802,22.962,48.139,22.326L48.139,22.326z M40.056,40.612l1.507-1.859c3.946-4.878,4.573-11.954,4.679-17.572
			l0.014-0.639l0.765-0.305l0.205-0.009c3.185,0,5.775,3.455,5.775,7.702c0,5.503-3.269,11.466-10.567,12.385L40.056,40.612z"/>
		<path fill="#D4D6D7" d="M48.813,49.111l-13.075,0.894c-0.64,0.043-1.208,0.423-1.495,0.994C33.938,51.612,33.311,52,32.624,52
			h-7.546h-8.507c-0.688,0-1.315-0.388-1.623-1.003c-0.285-0.571-0.852-0.951-1.489-0.996l-12.115-0.89
			c-0.752-0.132-1.298-0.554-1.298-1.316c0-0.869,0.704-1.57,1.571-1.57H48.54c0.865,0,1.571,0.701,1.571,1.57
			C50.111,48.558,49.563,48.979,48.813,49.111"/>
	</g>
	<g>
		<path fill="#E6E6E5" d="M25.078,19.266H2.941c-0.536,0-0.971,0.435-0.965,0.968c0.107,12.498,2.495,25.99,23.102,25.99
			c20.608,0,22.995-13.492,23.104-25.989c0.004-0.535-0.431-0.969-0.966-0.969H25.078L25.078,19.266z"/>
	</g>
	<path fill="#D4D6D7" d="M19.302,42.371c-0.052,0-0.107-0.002-0.16-0.012C11.5,41.063,7.397,36.663,5.839,28.104
		c-0.094-0.523,0.251-1.025,0.775-1.12c0.526-0.094,1.025,0.252,1.119,0.775c1.41,7.748,4.918,11.545,11.73,12.702
		c0.524,0.088,0.876,0.586,0.788,1.108C20.171,42.041,19.763,42.371,19.302,42.371"/>
</g>
</svg>
