<?xml version="1.0" encoding="utf-8"?>
<!-- Generator: Adobe Illustrator 16.0.4, SVG Export Plug-In . SVG Version: 6.00 Build 0)  -->
<!DOCTYPE svg PUBLIC "-//W3C//DTD SVG 1.1//EN" "http://www.w3.org/Graphics/SVG/1.1/DTD/svg11.dtd">
<svg version="1.1" id="Layer_1" xmlns="http://www.w3.org/2000/svg" xmlns:xlink="http://www.w3.org/1999/xlink" x="0px" y="0px"
	 width="53px" height="53px" viewBox="0 0 53 53" enable-background="new 0 0 53 53" xml:space="preserve">
<g transform="translate(0 1)">
	<g>
		<path fill="#D4D6D7" d="M48.139,22.326c-0.158,4.969-0.816,10.818-3.629,15.549c4.796-1.648,6.562-6.182,6.562-9.944
			C51.072,25.271,49.802,22.962,48.139,22.326L48.139,22.326z M40.056,40.612l1.507-1.859c3.946-4.878,4.573-11.954,4.679-17.572
			l0.014-0.639l0.765-0.305l0.205-0.009c3.185,0,5.775,3.455,5.775,7.702c0,5.503-3.269,11.466-10.567,12.385L40.056,40.612z"/>
		<path fill="#D4D6D7" d="M48.813,49.111l-13.075,0.894c-0.64,0.043-1.208,0.423-1.495,0.994C33.938,51.612,33.311,52,32.624,52
			h-7.546h-8.507c-0.688,0-1.315-0.388-1.623-1.003c-0.285-0.571-0.852-0.951-1.489-0.996l-12.115-0.89
			c-0.752-0.132-1.298-0.554-1.298-1.316c0-0.869,0.704-1.57,1.571-1.57H48.54c0.865,0,1.571,0.701,1.571,1.57
			C50.111,48.558,49.563,48.979,48.813,49.111"/>
	</g>
	<g>
		<path fill="#E6E6E5" d="M26.511,18.001c-0.235,0-0.47-0.09-0.649-0.271c-1.475-1.5-2.211-3.055-2.187-4.627
			c0.023-1.529,0.765-3,2.208-4.375c1.095-1.019,1.654-2.063,1.665-3.11c0.014-1.079-0.55-2.184-1.673-3.28
			c-0.361-0.352-0.368-0.929-0.016-1.289c0.351-0.359,0.928-0.367,1.287-0.015c1.494,1.459,2.24,3.008,2.223,4.606
			c-0.019,1.563-0.771,3.049-2.236,4.414c-1.067,1.018-1.62,2.054-1.636,3.077c-0.017,1.066,0.544,2.181,1.661,3.319
			c0.354,0.358,0.349,0.936-0.008,1.29C26.973,17.914,26.743,18.001,26.511,18.001z"/>
		<path fill="#E6E6E5" d="M35.646,18.001c-0.234,0-0.47-0.066-0.647-0.198c-1.477-1.097-2.213-2.237-2.188-3.386
			c0.024-1.121,0.767-2.198,2.208-3.203c1.103-0.751,1.663-1.52,1.677-2.29c0.014-0.787-0.546-1.592-1.662-2.39
			c-0.361-0.257-0.367-0.679-0.017-0.942c0.353-0.264,0.929-0.269,1.289-0.012c1.484,1.063,2.229,2.193,2.211,3.36
			c-0.019,1.147-0.775,2.239-2.25,3.244c-1.065,0.744-1.619,1.503-1.634,2.253c-0.018,0.779,0.543,1.597,1.663,2.43
			c0.353,0.262,0.349,0.685-0.012,0.943C36.107,17.938,35.878,18.001,35.646,18.001z"/>
		<path fill="#E6E6E5" d="M15.88,18.001c-0.236,0-0.469-0.066-0.648-0.198c-1.476-1.096-2.211-2.235-2.187-3.384
			c0.023-1.121,0.766-2.196,2.208-3.201c1.103-0.751,1.664-1.519,1.677-2.288c0.013-0.787-0.547-1.592-1.663-2.389
			c-0.36-0.257-0.367-0.679-0.014-0.941c0.351-0.263,0.928-0.269,1.288-0.01c1.486,1.062,2.231,2.19,2.211,3.358
			c-0.019,1.146-0.775,2.238-2.25,3.242c-1.066,0.743-1.62,1.501-1.636,2.251c-0.017,0.778,0.544,1.596,1.663,2.427
			c0.354,0.262,0.35,0.684-0.009,0.943C16.342,17.938,16.111,18.001,15.88,18.001z"/>
		<path fill="#E6E6E5" d="M25.078,19.266H2.941c-0.536,0-0.971,0.435-0.965,0.968c0.107,12.498,2.495,25.99,23.102,25.99
			c20.608,0,22.995-13.492,23.104-25.989c0.004-0.535-0.431-0.969-0.966-0.969H25.078L25.078,19.266z"/>
	</g>
	<path fill="#D4D6D7" d="M19.302,42.371c-0.052,0-0.107-0.002-0.16-0.012C11.5,41.063,7.397,36.663,5.839,28.104
		c-0.094-0.523,0.251-1.025,0.775-1.12c0.526-0.094,1.025,0.252,1.119,0.775c1.41,7.748,4.918,11.545,11.73,12.702
		c0.524,0.088,0.876,0.586,0.788,1.108C20.171,42.041,19.763,42.371,19.302,42.371"/>
</g>
</svg>
