<?xml version="1.0" encoding="utf-8"?>
<!-- Generator: Adobe Illustrator 16.0.4, SVG Export Plug-In . SVG Version: 6.00 Build 0)  -->
<!DOCTYPE svg PUBLIC "-//W3C//DTD SVG 1.1//EN" "http://www.w3.org/Graphics/SVG/1.1/DTD/svg11.dtd">
<svg version="1.1" id="Layer_1" xmlns="http://www.w3.org/2000/svg" xmlns:xlink="http://www.w3.org/1999/xlink" x="0px" y="0px"
	 width="25px" height="25px" viewBox="0 0 25 25" enable-background="new 0 0 25 25" xml:space="preserve">
<g>
	<path fill="#010101" d="M20.549,0.021c-2.458-0.248-4.649,1.649-5.36,4.374l-9.112-0.39c-0.24-1.718-1.451-2.952-3.013-2.952
		C1.193,1.053,0,3.801,0,5.693c0,1.411,0.615,2.674,1.595,3.335l-0.737,5.513l5.058-1.156L4.941,8.363
		c0.31-0.314,0.545-0.746,0.726-1.218l9.4,0.401c0.449,2.435,2.15,4.322,4.346,4.529c0.134,0.014,0.266,0.021,0.401,0.021
		c2.646,0,4.868-2.396,5.168-5.576C25.298,3.195,23.309,0.28,20.549,0.021z M3.064,2.119c0.971,0,1.709,0.745,1.928,1.84L1.45,3.808
		C1.84,2.847,2.469,2.119,3.064,2.119z M4.676,12.577l-2.56,0.584L2.75,8.438L2.405,8.269c-0.482-0.237-0.85-0.72-1.083-1.307
		l3.199,0.138C4.38,7.382,4.223,7.608,4.058,7.722L3.771,7.92L4.676,12.577z M22.864,6.32c-0.204,2.132-1.663,3.788-3.251,3.636
		c-1.586-0.151-2.715-2.025-2.513-4.177c0.192-2.043,1.534-3.645,3.05-3.645c0.065,0,0.136,0.003,0.201,0.01
		C21.939,2.292,23.066,4.166,22.864,6.32z"/>
</g>
</svg>
