<?xml version="1.0" encoding="utf-8"?>
<!-- Generator: Adobe Illustrator 16.0.4, SVG Export Plug-In . SVG Version: 6.00 Build 0)  -->
<!DOCTYPE svg PUBLIC "-//W3C//DTD SVG 1.1//EN" "http://www.w3.org/Graphics/SVG/1.1/DTD/svg11.dtd">
<svg version="1.1" id="Layer_1" xmlns="http://www.w3.org/2000/svg" xmlns:xlink="http://www.w3.org/1999/xlink" x="0px" y="0px"
	 width="25px" height="25px" viewBox="0 0 25 25" enable-background="new 0 0 25 25" xml:space="preserve">
<path fill="#FFFFFF" d="M24.269,12.134C24.269,5.443,18.825,0,12.134,0C5.443,0,0,5.443,0,12.134c0,3.534,1.52,6.72,3.938,8.939
	l-0.012,0.01l0.394,0.332c0.025,0.021,0.054,0.039,0.079,0.061c0.209,0.174,0.426,0.338,0.646,0.497
	c0.071,0.052,0.143,0.104,0.216,0.153c0.235,0.163,0.478,0.316,0.725,0.463c0.054,0.031,0.108,0.062,0.162,0.094
	c0.271,0.153,0.547,0.299,0.83,0.432c0.021,0.01,0.042,0.02,0.062,0.029c0.922,0.428,1.905,0.742,2.935,0.928
	c0.027,0.005,0.054,0.01,0.081,0.015c0.319,0.056,0.643,0.1,0.97,0.129c0.039,0.004,0.079,0.006,0.119,0.01
	c0.326,0.026,0.655,0.044,0.988,0.044c0.331,0,0.657-0.018,0.981-0.043c0.04-0.004,0.081-0.006,0.122-0.01
	c0.324-0.029,0.646-0.072,0.961-0.126c0.027-0.005,0.056-0.01,0.083-0.016c1.014-0.182,1.983-0.489,2.894-0.906
	c0.033-0.016,0.067-0.03,0.101-0.046c0.272-0.128,0.538-0.267,0.799-0.413c0.065-0.037,0.13-0.074,0.194-0.112
	c0.237-0.14,0.471-0.285,0.697-0.44c0.082-0.056,0.162-0.114,0.242-0.173c0.194-0.14,0.384-0.283,0.569-0.434
	c0.041-0.033,0.085-0.062,0.125-0.096l0.403-0.337l-0.012-0.011C22.734,18.887,24.269,15.687,24.269,12.134z M0.883,12.134
	c0-6.204,5.047-11.251,11.251-11.251c6.205,0,11.252,5.047,11.252,11.251c0,3.344-1.467,6.35-3.789,8.412
	c-0.13-0.09-0.261-0.17-0.395-0.237l-3.736-1.868c-0.335-0.167-0.543-0.504-0.543-0.879v-1.305c0.086-0.106,0.178-0.228,0.271-0.36
	c0.483-0.683,0.872-1.443,1.154-2.261c0.56-0.266,0.92-0.822,0.92-1.451V10.62c0-0.383-0.14-0.754-0.391-1.045v-2.06
	c0.022-0.229,0.104-1.521-0.831-2.587C15.233,4,13.917,3.53,12.134,3.53c-1.782,0-3.099,0.47-3.912,1.397
	C7.287,5.993,7.368,7.287,7.391,7.516v2.059c-0.25,0.292-0.392,0.663-0.392,1.046v1.564c0,0.485,0.219,0.938,0.592,1.244
	c0.357,1.4,1.093,2.46,1.365,2.819v1.277c0,0.359-0.197,0.69-0.514,0.863l-3.488,1.903c-0.111,0.061-0.222,0.131-0.332,0.21
	C2.328,18.44,0.883,15.453,0.883,12.134z"/>
</svg>
