<?xml version="1.0" encoding="utf-8"?>
<!-- Generator: Adobe Illustrator 16.0.0, SVG Export Plug-In . SVG Version: 6.00 Build 0)  -->
<!DOCTYPE svg PUBLIC "-//W3C//DTD SVG 1.1//EN" "http://www.w3.org/Graphics/SVG/1.1/DTD/svg11.dtd">
<svg version="1.1" id="Layer_1" xmlns="http://www.w3.org/2000/svg" xmlns:xlink="http://www.w3.org/1999/xlink" x="0px" y="0px"
	 width="307px" height="218px" viewBox="0 0 307 218" enable-background="new 0 0 307 218" xml:space="preserve">
<path stroke="#000000" stroke-miterlimit="10" d="M15.639,167.667"/>
<path stroke="#000000" stroke-miterlimit="10" d="M77.578,66.909"/>
<rect x="6.222" y="120.668" stroke="#000000" stroke-miterlimit="10" width="8.083" height="51.416"/>
<path stroke="#000000" stroke-miterlimit="10" d="M53.389,181.994h-34.75l0.083-71.584h21.667c0,0,5.417,0,6.75-3.083
	c1.243-2.875,24.087-62.57,84.345-72.495c4.356-0.717,8.902-1.174,13.654-1.331c0,0,42.667,1.75,69.917-27.5c0,0,6.75,11,6.75,28.25
	c0,0,18.75-6.75,30.5-28.25c0,0,19.25,36-8.5,67.5c0,0,16.75,30,18.5,34s6.25,2.5,7.875,2.875l19.75-0.125v71.125l-34,0.619
	c0,0-0.75-40.494-0.625-42.994s-2-35.667-24.668-59c-22.666-23.333-44.666-34.333-74.998-34.667c-30.332-0.333-51,11.333-70,25.667
	c0,0-28.333,27.613-31,58.641C51.972,160.667,53.389,181.994,53.389,181.994z"/>
<path fill="#FFFFFF" stroke="#FFFFFF" stroke-miterlimit="10" d="M76.138,119.833l70.166,58.833c0,0-5.834,14.834-6.002,15.334
	c-0.166,0.5-0.332,1.666-3.332,1.833s-29.999,0-29.999,0s-3,0.666-5-3.167S76.138,119.833,76.138,119.833z"/>
<path fill="#FFFFFF" stroke="#FFFFFF" stroke-miterlimit="10" d="M172.303,195.907c0,0,23.668,0.259,29.168,0
	s5.666-2.574,5.666-2.574l26.166-73.5l-70.498,59l5.832,14C168.637,192.833,169.305,195.148,172.303,195.907z"/>
<path stroke="#000000" stroke-miterlimit="10" d="M149.023,205.062l2.969,4.406l-3.344,3.344c0,0-1.5-1.906-1.719-3.312
	S148.398,205.5,149.023,205.062z"/>
<path stroke="#030202" stroke-miterlimit="10" d="M160.898,205.062l2.219,7.219c0,0-4.656,1.969-4.562-1.781
	S160.898,205.062,160.898,205.062z"/>
<rect x="294.391" y="120.542" stroke="#000000" stroke-miterlimit="10" width="8.084" height="51.416"/>
</svg>
