<?xml version="1.0" ?><svg height="512" id="Layer_1" version="1.1" viewBox="0 0 512 512" width="512" xml:space="preserve" xmlns="http://www.w3.org/2000/svg" xmlns:cc="http://creativecommons.org/ns#" xmlns:dc="http://purl.org/dc/elements/1.1/" xmlns:inkscape="http://www.inkscape.org/namespaces/inkscape" xmlns:rdf="http://www.w3.org/1999/02/22-rdf-syntax-ns#" xmlns:sodipodi="http://sodipodi.sourceforge.net/DTD/sodipodi-0.dtd" xmlns:svg="http://www.w3.org/2000/svg"><defs id="defs12"/><g id="g3678"><g id="g11737" style="fill:#000000;fill-opacity:1"><rect height="512" id="rect2987" style="fill:#000000;fill-opacity:1;fill-rule:nonzero;stroke:none" width="512" x="0" y="0"/><path d="m 130.10475,250.1215 120.1122,-120.83213 c 30.1558,-30.320263 79.0273,-30.320263 109.1654,0 7.2178,7.60007 6.88,19.89794 -0.5467,27.36911 -7.5423,7.59118 -19.7424,7.59118 -27.3025,0 l -1.8222,-2.11557 c -15.1557,-12.92456 -37.8981,-12.19122 -52.2049,2.2089 l -122.8099,123.52551 c -8.089,7.49784 -20.3024,7.49784 -27.8358,-0.08 -7.5423,-7.57784 -7.5423,-19.87573 0,-27.45357 1.0133,-1.0089 2.0933,-1.88002 3.2444,-2.62225 z m 269.6646,2.62669 c -7.5423,-7.57784 -19.7468,-7.57784 -27.2891,0 -1.0045,1.02223 -1.8845,2.11558 -2.6312,3.27559 l -119.6277,120.33881 c -15.0756,15.15568 -39.5159,15.15568 -54.5871,0 l -0.5467,-0.0845 c -7.5289,-7.57784 -19.7424,-7.57784 -27.2891,0 -7.5289,7.56451 -7.5289,19.87573 0,27.44023 0.9645,0.96446 1.9911,1.81335 3.0756,2.54669 30.3114,27.8358 77.3207,27.03135 106.632,-2.45335 l 122.2633,-123.60995 c 7.5289,-7.57785 7.5289,-19.87573 0,-27.45357 z m -187.7972,79.72513 c -1.1422,0.75557 -2.2356,1.62224 -3.2356,2.63114 -7.5423,7.56895 -7.5423,19.87572 0,27.44023 7.5334,7.57785 19.7424,7.57785 27.8358,0.0933 l 122.81,-123.54773 c 15.0757,-15.15569 39.5159,-15.15569 54.5738,0 15.0934,15.16458 15.0934,39.7559 0,54.91159 L 297.50625,411.6962 c 15.089,15.15568 39.5159,15.15568 54.5871,0 l 89.1652,-90.24078 c 30.1336,-30.32026 30.1336,-79.48068 0,-109.81427 -30.1336,-30.30249 -79.014,-30.30249 -109.1653,0 l -120.1211,120.83214 z m -16.3423,-11.01787 122.2632,-123.60995 c 7.5379,-7.58673 7.5379,-19.88461 0,-27.44912 -7.5289,-7.58674 -19.7557,-7.58674 -27.2891,0 -1.0133,1.00001 -1.8845,2.10668 -2.6178,3.26669 l -119.641,120.34326 c -15.0757,15.16457 -39.507,15.16457 -54.5738,0 -15.088996,-15.15569 -15.088996,-39.74701 0,-54.91159 l 116.4499,-117.68099 c -15.0668,-15.16902 -39.5159,-15.16902 -54.5872,0 l -89.165196,90.22743 c -30.1469,30.33359 -30.1469,79.49401 0,109.81427 30.146896,30.32915 79.036296,30.32915 109.160996,0 z" id="Squarespace" style="fill:#000000;fill-opacity:1"/></g><path d="m 426.06699,205.07102 c 0,20.36448 -16.56892,36.88006 -37.00896,36.88006 -20.46226,0 -37.02229,-16.51558 -37.02229,-36.88006 0,-20.36449 16.56447,-36.87563 37.02229,-36.87563 20.44004,0 37.00896,16.51114 37.00896,36.87563 z m -14.91114,62.30678 -44.82675,38.19563 c 0.48444,3.04889 0.81333,6.14668 0.81333,9.32446 0,32.51562 -26.46227,58.88011 -59.09344,58.88011 -28.15117,0 -51.65788,-19.61781 -57.61344,-45.86675 L 139.63089,290.45784 c -8.75557,6.62224 -19.64004,10.60002 -31.48006,10.60002 -28.800049,0 -52.151208,-23.26671 -52.151208,-51.9601 0,-28.68894 23.35116,-51.94676 52.151208,-51.94676 24.76449,0 45.44898,17.20003 50.78676,40.24452 l 107.03576,36.18229 c 10.42669,-10.52891 24.80449,-17.12892 40.73786,-17.48448 l 16.03114,-48.5512 c -0.0444,-0.96445 -0.14222,-1.91556 -0.14222,-2.88889 0,-36.68896 29.86227,-66.43124 66.6979,-66.43124 36.83562,0 66.70235,29.74228 66.70235,66.43124 0,29.06672 -18.76004,53.70676 -44.84453,62.72456 z M 140.94201,231.31551 c -6.23113,-11.17336 -18.19115,-18.74226 -31.92895,-18.74226 -20.168928,0 -36.520068,16.28892 -36.520068,36.37785 0,20.08892 16.35114,36.3734 36.520068,36.3734 3.72889,0 7.32001,-0.56 10.70668,-1.59556 l -17.35114,-5.86223 c -13.982248,-7.45779 -19.244479,-24.7956 -11.755578,-38.72452 7.493347,-13.92003 24.897828,-19.15559 38.866738,-11.6978 l 11.46225,3.87112 z m 196.33814,-26.50227 c 0,28.49783 23.19116,51.60009 51.8001,51.60009 28.60894,0 51.81788,-23.10226 51.81788,-51.60009 0,-28.51117 -23.20894,-51.61343 -51.81788,-51.61343 -28.60894,0 -51.8001,23.10226 -51.8001,51.61343 z m 1.02223,115.13799 c 0,-21.69782 -17.65781,-39.28896 -39.44008,-39.28896 -3.05334,0 -6.00445,0.38222 -8.85779,1.03111 l 22.04004,7.4489 c 13.97336,7.46669 19.2267,24.80005 11.7378,38.71563 -7.4889,13.93781 -24.89338,19.16893 -38.8623,11.71114 l -23.75115,-8.03113 c 4.96445,16.04003 19.96448,27.69783 37.6934,27.69783 21.78227,0 39.44008,-17.59559 39.44008,-39.28452 z" id="Steam" style="fill:#ffffff;fill-opacity:1;fill-rule:evenodd"/></g></svg>