<?xml version="1.0" encoding="utf-8"?>
<!-- Generator: Adobe Illustrator 16.0.4, SVG Export Plug-In . SVG Version: 6.00 Build 0)  -->
<!DOCTYPE svg PUBLIC "-//W3C//DTD SVG 1.1//EN" "http://www.w3.org/Graphics/SVG/1.1/DTD/svg11.dtd">
<svg version="1.1" id="Capa_1" xmlns="http://www.w3.org/2000/svg" xmlns:xlink="http://www.w3.org/1999/xlink" x="0px" y="0px"
	 width="20px" height="20px" viewBox="0 0 20 20" enable-background="new 0 0 20 20" xml:space="preserve">
<g>
	<g>
		<path fill="#B52512" d="M10,19.63L10,19.63c-5.318,0-9.63-4.312-9.63-9.63l0,0c0-5.318,4.312-9.63,9.63-9.63l0,0
			c5.318,0,9.63,4.312,9.63,9.63l0,0C19.63,15.318,15.318,19.63,10,19.63z"/>
		<path fill="#B52512" d="M10,20C4.486,20,0,15.514,0,10C0,4.486,4.486,0,10,0c5.514,0,10,4.486,10,10C20,15.514,15.514,20,10,20z
			 M10,0.741c-5.105,0-9.259,4.154-9.259,9.259S4.895,19.26,10,19.26s9.26-4.154,9.26-9.26S15.105,0.741,10,0.741z"/>
	</g>
	<path fill="#999999" d="M8.257,14.814c-0.095,0-0.189-0.036-0.262-0.108c-0.145-0.145-0.145-0.379,0-0.523L12.178,10L7.995,5.817
		c-0.145-0.145-0.145-0.379,0-0.523c0.145-0.145,0.379-0.145,0.524,0l4.258,4.258c0.247,0.247,0.247,0.648,0,0.896l-4.258,4.258
		C8.447,14.778,8.352,14.814,8.257,14.814z"/>
</g>
</svg>
